<?xml version="1.0" encoding="utf-8"?>
<!-- Generator: Adobe Illustrator 26.0.3, SVG Export Plug-In . SVG Version: 6.00 Build 0)  -->
<svg version="1.1" id="Layer_1" xmlns="http://www.w3.org/2000/svg" xmlns:xlink="http://www.w3.org/1999/xlink" x="0px" y="0px"
	 viewBox="0 0 1080 1080" style="enable-background:new 0 0 1080 1080;" xml:space="preserve">
<style type="text/css">
	.st0{fill:#666666;}
</style>
<path class="st0" d="M550.94,804.26c-169.53-2.37-296.93-71.74-399.67-190.74c-19.38-22.45-35.41-47.81-52.78-71.97
	c-8.88-12.35-8.32-24.84,0.04-37.49C207.4,339.43,353.59,238.7,557.5,242.85c140.08,2.85,255.46,63.96,350.44,164.34
	c27.53,29.1,50.05,62.96,74.59,94.86c10.59,13.76,9.56,27.69,0.04,42.11C893.67,678.78,776.01,771.6,613.03,798.17
	C589.48,802.01,565.44,802.89,550.94,804.26z M541.44,748.9c22.06-2.26,44.34-3.28,66.16-6.97
	c135.46-22.96,235.23-100.11,314.52-208.21c5.86-7.98,6.32-14.26-0.26-21.56c-29.3-32.5-55.7-68.24-88.22-97.09
	c-109.77-97.4-237.22-138.05-382.94-106.26c-125.3,27.33-217.87,103.07-290.93,205.2c-3.03,4.23-2.33,15.3,1.13,19.33
	c28.49,33.2,55.53,68.24,87.75,97.51C331.17,705.83,428.56,746.73,541.44,748.9z"/>
<path class="st0" d="M541.74,691.42c-92.87,0.22-168.85-75.24-169.05-167.91c-0.21-92.91,75.2-168.83,167.9-169.04
	c92.9-0.21,168.83,75.2,169.04,167.89C709.84,615.23,634.4,691.2,541.74,691.42z M541.31,635.2
	c61.85-0.07,112.34-50.9,112.09-112.85C653.16,461.24,602.97,411,541.88,410.7c-61.97-0.3-112.85,50.13-112.97,111.96
	C428.8,584.57,479.44,635.27,541.31,635.2z"/>
</svg>
