<svg width="17" height="17" viewBox="0 0 17 17" fill="none" xmlns="http://www.w3.org/2000/svg">
<path fill-rule="evenodd" clip-rule="evenodd" d="M8.19263 0.583328C3.99022 0.583328 0.583496 3.91481 0.583496 8.02441C0.583496 12.134 3.99022 15.4655 8.19263 15.4655C9.98999 15.4655 11.6418 14.8561 12.9438 13.837L15.417 16.2493L15.4828 16.3047C15.7124 16.4709 16.038 16.452 16.2457 16.2483C16.4743 16.0242 16.4738 15.6614 16.2447 15.4379L13.8005 13.0539C15.0432 11.7295 15.8018 9.96358 15.8018 8.02441C15.8018 3.91481 12.395 0.583328 8.19263 0.583328ZM8.19263 1.72945C11.7478 1.72945 14.6298 4.5478 14.6298 8.02441C14.6298 11.501 11.7478 14.3194 8.19263 14.3194C4.63751 14.3194 1.75551 11.501 1.75551 8.02441C1.75551 4.5478 4.63751 1.72945 8.19263 1.72945Z" fill="#65656B"/>
</svg>
