<svg width="21" height="21" viewBox="0 0 21 21" fill="none" xmlns="http://www.w3.org/2000/svg">
<path d="M19.0195 0.5H1.97656C1.16016 0.5 0.5 1.14453 0.5 1.94141V19.0547C0.5 19.8516 1.16016 20.5 1.97656 20.5H19.0195C19.8359 20.5 20.5 19.8516 20.5 19.0586V1.94141C20.5 1.14453 19.8359 0.5 19.0195 0.5ZM6.43359 17.543H3.46484V7.99609H6.43359V17.543ZM4.94922 6.69531C3.99609 6.69531 3.22656 5.92578 3.22656 4.97656C3.22656 4.02734 3.99609 3.25781 4.94922 3.25781C5.89844 3.25781 6.66797 4.02734 6.66797 4.97656C6.66797 5.92188 5.89844 6.69531 4.94922 6.69531ZM17.543 17.543H14.5781V12.9023C14.5781 11.7969 14.5586 10.3711 13.0352 10.3711C11.4922 10.3711 11.2578 11.5781 11.2578 12.8242V17.543H8.29688V7.99609H11.1406V9.30078H11.1797C11.5742 8.55078 12.543 7.75781 13.9844 7.75781C16.9883 7.75781 17.543 9.73438 17.543 12.3047V17.543Z" fill="white"/>
</svg>
