<svg width="20" height="20" viewBox="0 0 20 20" fill="none" xmlns="http://www.w3.org/2000/svg">
<path fill-rule="evenodd" clip-rule="evenodd" d="M14.3344 0.000198364H5.6654C2.26782 0.000198364 0.000396729 2.43279 0.000396729 5.9162V14.0842C0.000396729 17.5709 2.26177 20.0002 5.6654 20.0002H14.3334C17.738 20.0002 20.0004 17.5709 20.0004 14.0842V5.9162C20.0004 2.4297 17.7382 0.000198364 14.3344 0.000198364ZM5.6654 1.5002H14.3344C16.8849 1.5002 18.5004 3.23516 18.5004 5.9162V14.0842C18.5004 16.7654 16.8848 18.5002 14.3334 18.5002H5.6654C3.11516 18.5002 1.5004 16.7655 1.5004 14.0842V5.9162C1.5004 3.23857 3.12074 1.5002 5.6654 1.5002ZM6.8403 7.3982C5.40415 7.3982 4.2393 8.56392 4.2393 10.0002C4.2393 11.4365 5.40415 12.6022 6.8403 12.6022C8.01645 12.6022 9.01046 11.8213 9.33252 10.7502L11.4316 10.7501V11.8517L11.4384 11.9535C11.4881 12.3195 11.8019 12.6017 12.1816 12.6017C12.5958 12.6017 12.9316 12.2659 12.9316 11.8517V10.75L14.26 10.75L14.2603 11.8522L14.2671 11.954C14.3168 12.32 14.6306 12.6022 15.0103 12.6022C15.4245 12.6022 15.7603 12.2664 15.7603 11.8522V10.0002L15.7535 9.89843C15.7038 9.53235 15.39 9.2502 15.0103 9.2502H12.2092C12.2001 9.24987 12.1908 9.2497 12.1816 9.2497C12.1723 9.2497 12.1631 9.24987 12.154 9.2502H9.33251C9.01045 8.17904 8.01644 7.3982 6.8403 7.3982ZM6.8403 8.8982C7.44868 8.8982 7.9423 9.392 7.9423 10.0002C7.9423 10.6084 7.44868 11.1022 6.8403 11.1022C6.23283 11.1022 5.7393 10.6083 5.7393 10.0002C5.7393 9.3921 6.23283 8.8982 6.8403 8.8982Z" fill="#65656B"/>
</svg>
